<svg width="20" height="20" viewBox="0 0 20 20" fill="none" xmlns="http://www.w3.org/2000/svg">
<path d="M11.7678 9.99992L19.6339 2.13361C20.122 1.64548 20.122 0.853913 19.6339 0.366097C19.1458 -0.122032 18.3545 -0.122032 17.8664 0.366097L10 8.23209L2.13394 0.366097C1.64581 -0.122032 0.854232 -0.122032 0.366099 0.366097C-0.122033 0.854225 -0.122033 1.64579 0.366099 2.13361L8.23247 9.99992L0.366099 17.8662C-0.122033 18.3544 -0.122033 19.1459 0.366099 19.6337C0.610166 19.8778 0.930171 20 1.24986 20C1.56956 20 1.88987 19.8778 2.13394 19.6337L10 11.7677L17.8664 19.6337C18.1104 19.8778 18.4304 20 18.7501 20C19.0698 20 19.3901 19.8778 19.6339 19.6337C20.122 19.1456 20.122 18.354 19.6339 17.8662L11.7678 9.99992Z" fill="black"/>
</svg>
